<mxfile host="app.diagrams.net" modified="2023-07-05T03:41:28.166Z" agent="Mozilla/5.0 (Macintosh; Intel Mac OS X 10_15_7) AppleWebKit/537.36 (KHTML, like Gecko) Chrome/114.0.0.0 Safari/537.36" version="21.3.6" etag="ILBLBI5-1FVC_azJCdgl" type="github">
  <diagram name="第 1 页" id="lAHDEwihrnHZqe27xvU8">
    <mxGraphModel>
      <root>
        <mxCell id="0" />
        <mxCell id="1" parent="0" />
      </root>
    </mxGraphModel>
  </diagram>
</mxfile>
